#!OML:ASF Z:\Project 1\Capture day 1\Session 1\Male1.ASF
:FULLY-SPECIFIED
:DEGREES
1531
root 21.3574 16.208 -3.84796 -173.25 30.9083 -178.192
lowerback -3.72928 -1.61971 -5.14301
upperback 2.1915 -1.88602 0.649702
thorax 4.55968 -1.09815 3.41376
lowerneck -9.82888 -1.10741 0.942678
upperneck -4.12449 -1.24079 2.23912
head 0.353013 -0.469165 0.493551
rclavicle 4.27387e-014 -4.77083e-015
rhumerus -68.6267 -24.6685 -54.6153
rradius 0.526769
rwrist 38.4599
rhand -36.9526 41.0294
rfingers 7.12502
rthumb -10.029 11.2884
lclavicle 4.27387e-014 -4.77083e-015
lhumerus 77.7455 155.959 126.541
lradius 8.68093
lwrist -121.761
lhand -27.9993 -304.953
lfingers 7.12502
lthumb -1.38528 -1354.98
rfemur -23.1209 -4.33353 18.8113
rtibia 14.6417
rfoot 1.41477 -11.408
rtoes -4.81213
lfemur 10.9716 -5.22725 -17.4322
ltibia 4.95825
lfoot -20.3411 4.37596
ltoes 33.5237
1532
root 21.2917 16.2002 -3.80767 -173.525 30.897 -178.424
lowerback -3.75602 -1.70513 -5.45133
upperback 2.28926 -1.97324 0.586183
thorax 4.69639 -1.1542 3.51137
lowerneck -9.74695 -0.998812 1.32388
upperneck -3.62518 -1.17646 1.97364
head 0.490741 -0.453035 0.350538
rclavicle 7.35006e-014 -1.47101e-014
rhumerus -70.0529 -23.7029 -54.5821
rradius 0.952336
rwrist 37.3543
rhand -37.3847 41.2216
rfingers 7.12502
rthumb -10.4458 11.5011
lclavicle 7.35006e-014 -1.47101e-014
lhumerus 78.5822 156.605 126.624
lradius 9.42753
lwrist -119.953
lhand -27.5919 -305.062
lfingers 7.12502
lthumb -0.991745 -1355.08
rfemur -22.9421 -4.15359 18.3932
rtibia 14.28
rfoot 1.93608 -11.8519
rtoes -7.80842
lfemur 9.90807 -5.29762 -17.7868
ltibia 6.8724
lfoot -21.179 4.58223
ltoes 32.0365
1533
root 21.2243 16.1917 -3.76407 -173.734 30.8472 -178.576
lowerback -3.78667 -1.7246 -5.71057
upperback 2.37385 -1.97388 0.507654
thorax 4.81057 -1.16498 3.57293
lowerneck -9.57999 -0.996973 1.73634
upperneck -3.20747 -1.24797 1.74574
head 0.58993 -0.503595 0.209711
rclavicle -5.9039e-014 -1.82882e-014
rhumerus -71.4954 -22.9555 -54.4417
rradius 1.33473
rwrist 36.1109
rhand -37.7081 41.6786
rfingers 7.12502
rthumb -10.7577 11.974
lclavicle -5.9039e-014 -1.82882e-014
lhumerus 79.8839 157.326 126.863
lradius 9.79395
lwrist -117.42
lhand -26.7062 -305.572
lfingers 7.12502
lthumb -0.136344 -1355.59
rfemur -22.6774 -4.28655 18.1713
rtibia 13.7329
rfoot 1.45571 -12.3462
rtoes -4.31488
lfemur 8.86176 -5.40345 -18.032
ltibia 8.72831
lfoot -22.0733 4.29783
ltoes 32.0715
1534
root 21.1506 16.1758 -3.71885 -173.788 30.6457 -178.565
lowerback -3.8191 -1.7778 -5.75474
upperback 2.44303 -2.03702 0.507602
thorax 4.9105 -1.20135 3.5902
lowerneck -9.48886 -0.98786 1.65993
upperneck -2.93739 -1.2482 1.76191
head 0.660999 -0.50706 0.22698
rclavicle 7.65321e-015 1.31198e-014
rhumerus -72.6796 -22.3056 -54.2604
rradius 1.55943
rwrist 34.6758
rhand -37.4421 42.1401
rfingers 7.12502
rthumb -10.5011 12.4224
lclavicle 7.65321e-015 1.31198e-014
lhumerus 81.3366 158.199 127.184
lradius 9.90108
lwrist -114.669
lhand -25.6227 -306.114
lfingers 7.12502
lthumb 0.910175 -1356.14
rfemur -22.45 -5.11929 18.3256
rtibia 13.1726
rfoot 2.86956 -9.79985
rtoes -18.1874
lfemur 7.99059 -5.64198 -18.0764
ltibia 10.09
lfoot -22.8199 3.29868
ltoes 35.1857
1535
root 21.0781 16.171 -3.67449 -173.955 30.5567 -178.798
lowerback -3.89743 -1.84497 -6.02607
upperback 2.54197 -2.09868 0.482235
thorax 5.07719 -1.2462 3.70678
lowerneck -9.51399 -0.889711 1.37918
upperneck -2.74063 -1.10345 1.89457
head 0.730761 -0.431808 0.318823
rclavicle -5.1684e-015 -1.19271e-015
rhumerus -73.6063 -21.6483 -54.1421
rradius 1.85583
rwrist 33.2013
rhand -37.0509 42.1996
rfingers 7.12502
rthumb -10.1237 12.4631
lclavicle -5.1684e-015 -1.19271e-015
lhumerus 82.5694 159.133 127.452
lradius 9.94779
lwrist -111.827
lhand -24.7126 -306.153
lfingers 7.12502
lthumb 1.7891 -1356.18
rfemur -22.2989 -5.25047 18.0118
rtibia 12.6166
rfoot 3.01184 -10.6487
rtoes -17.6909
lfemur 7.13182 -5.49978 -18.3771
ltibia 11.1612
lfoot -23.0844 3.30009
ltoes 33.8724
1536
root 21.0064 16.1767 -3.62909 -174.309 30.685 -179.421
lowerback -3.89841 -1.88711 -6.62071
upperback 2.56253 -2.10486 0.301808
thorax 5.11999 -1.26575 3.85092
lowerneck -9.54318 -0.805629 1.41486
upperneck -2.42144 -1.01692 1.81543
head 0.83636 -0.392741 0.290907
rclavicle -6.63941e-014 2.06736e-014
rhumerus -74.5257 -20.9377 -54.1423
rradius 2.20061
rwrist 31.8918
rhand -37.1495 42.5492
rfingers 7.12502
rthumb -10.2189 12.8174
lclavicle -6.63941e-014 2.06736e-014
lhumerus 83.5752 159.982 127.574
lradius 10.1809
lwrist -108.781
lhand -24.082 -305.912
lfingers 7.12502
lthumb 2.39814 -1355.95
rfemur -22.2071 -4.52629 17.0369
rtibia 11.9622
rfoot 3.05494 -11.7397
rtoes -14.6343
lfemur 6.37861 -5.01004 -18.9885
ltibia 12.0978
lfoot -23.4182 2.67607
ltoes 33.6021
